<svg width="32" height="32" viewBox="0 0 32 32" fill="none" xmlns="http://www.w3.org/2000/svg">
<path d="M20.4493 16.4434C21.4515 15.3671 22.0161 13.9556 22.0326 12.485C22.0326 10.8977 21.402 9.37539 20.2796 8.25299C19.1572 7.13058 17.6349 6.50002 16.0476 6.50002C14.4603 6.50002 12.938 7.13058 11.8155 8.25299C10.6931 9.37539 10.0626 10.8977 10.0626 12.485C10.0791 13.9556 10.6437 15.3671 11.6459 16.4434C10.2505 17.1382 9.0496 18.1691 8.15136 19.4432C7.25313 20.7173 6.68569 22.1947 6.50008 23.7425C6.45389 24.1624 6.5764 24.5835 6.84067 24.9131C7.10494 25.2427 7.48932 25.4538 7.90925 25.5C8.32917 25.5462 8.75025 25.4237 9.07985 25.1594C9.40944 24.8952 9.62056 24.5108 9.66675 24.0909C9.85569 22.5568 10.5991 21.1448 11.7569 20.1209C12.9147 19.0969 14.407 18.5317 15.9526 18.5317C17.4982 18.5317 18.9905 19.0969 20.1483 20.1209C21.3061 21.1448 22.0495 22.5568 22.2384 24.0909C22.2824 24.4968 22.4816 24.8701 22.7944 25.1327C23.1072 25.3953 23.5093 25.5269 23.9167 25.5H24.0909C24.506 25.4523 24.8853 25.2424 25.1463 24.9162C25.4073 24.5899 25.5288 24.1738 25.4842 23.7584C25.3124 22.2187 24.7629 20.7453 23.8845 19.4692C23.0061 18.193 21.8261 17.1536 20.4493 16.4434ZM16.0001 15.3034C15.4427 15.3034 14.8978 15.1381 14.4343 14.8284C13.9708 14.5187 13.6096 14.0785 13.3963 13.5636C13.183 13.0486 13.1272 12.4819 13.2359 11.9352C13.3446 11.3885 13.6131 10.8863 14.0072 10.4922C14.4014 10.098 14.9036 9.82959 15.4503 9.72084C15.997 9.6121 16.5636 9.66791 17.0786 9.88122C17.5936 10.0945 18.0338 10.4558 18.3434 10.9192C18.6531 11.3827 18.8184 11.9276 18.8184 12.485C18.8184 13.2325 18.5215 13.9493 17.9929 14.4779C17.4644 15.0064 16.7476 15.3034 16.0001 15.3034ZM27.0834 0.166687H4.91675C3.65697 0.166687 2.44879 0.667132 1.55799 1.55793C0.667193 2.44873 0.166748 3.65691 0.166748 4.91669V27.0834C0.166748 28.3431 0.667193 29.5513 1.55799 30.4421C2.44879 31.3329 3.65697 31.8334 4.91675 31.8334H27.0834C28.3432 31.8334 29.5514 31.3329 30.4422 30.4421C31.333 29.5513 31.8334 28.3431 31.8334 27.0834V4.91669C31.8334 3.65691 31.333 2.44873 30.4422 1.55793C29.5514 0.667132 28.3432 0.166687 27.0834 0.166687ZM28.6667 27.0834C28.6667 27.5033 28.4999 27.906 28.203 28.2029C27.9061 28.4999 27.5033 28.6667 27.0834 28.6667H4.91675C4.49682 28.6667 4.0941 28.4999 3.79716 28.2029C3.50023 27.906 3.33342 27.5033 3.33342 27.0834V4.91669C3.33342 4.49676 3.50023 4.09403 3.79716 3.7971C4.0941 3.50017 4.49682 3.33335 4.91675 3.33335H27.0834C27.5033 3.33335 27.9061 3.50017 28.203 3.7971C28.4999 4.09403 28.6667 4.49676 28.6667 4.91669V27.0834Z" fill="#FF9670"/>
</svg>
