<svg width="28" height="32" viewBox="0 0 28 32" fill="none" xmlns="http://www.w3.org/2000/svg">
<path d="M27.4426 8.90664C27.4336 8.8649 27.4336 8.82172 27.4426 8.77997C27.4349 8.74343 27.4349 8.70569 27.4426 8.66914V8.52664L27.3476 8.28914C27.309 8.22434 27.2609 8.16564 27.2051 8.11497L27.0625 7.98831H26.9834L20.745 4.04581L14.855 0.404142C14.7188 0.296048 14.5628 0.215393 14.3959 0.166642H14.2692C14.1277 0.14302 13.9832 0.14302 13.8417 0.166642H13.6834C13.4995 0.207321 13.3231 0.276788 13.1609 0.372475L1.33338 7.73497L1.19088 7.84581L1.04838 7.97247L0.890047 8.08331L0.81088 8.17831L0.71588 8.41581V8.55831V8.65331C0.700501 8.7583 0.700501 8.86498 0.71588 8.96997V22.7925C0.715342 23.0616 0.783387 23.3263 0.913593 23.5618C1.0438 23.7973 1.23187 23.9957 1.46005 24.1383L13.335 31.485L13.5725 31.58H13.6992C13.9671 31.6649 14.2547 31.6649 14.5225 31.58H14.6492L14.8867 31.485L26.6667 24.2491C26.8949 24.1065 27.083 23.9081 27.2132 23.6726C27.3434 23.4372 27.4114 23.1724 27.4109 22.9033V9.08081C27.4109 9.08081 27.4426 8.96997 27.4426 8.90664ZM14 3.60248L16.8184 5.34414L7.96755 10.8225L5.13338 9.08081L14 3.60248ZM12.4167 27.3525L3.70838 22.0325V11.915L12.4167 17.2983V27.3525ZM14 14.5116L10.9759 12.6908L19.8267 7.19664L22.8667 9.08081L14 14.5116ZM24.2917 21.985L15.5834 27.4V17.2983L24.2917 11.915V21.985Z" fill="#FF9670"/>
</svg>
