<svg width="36" height="28" viewBox="0 0 36 28" fill="none" xmlns="http://www.w3.org/2000/svg">
<path d="M18.4749 14.3483C19.3198 13.617 19.9974 12.7126 20.4618 11.6963C20.9262 10.68 21.1666 9.5757 21.1666 8.45832C21.1666 6.35869 20.3325 4.34506 18.8478 2.86039C17.3632 1.37573 15.3496 0.541657 13.2499 0.541657C11.1503 0.541657 9.13665 1.37573 7.65199 2.86039C6.16733 4.34506 5.33325 6.35869 5.33325 8.45832C5.33324 9.5757 5.57361 10.68 6.03803 11.6963C6.50246 12.7126 7.18009 13.617 8.02492 14.3483C5.80847 15.352 3.92799 16.9727 2.6083 19.0169C1.28862 21.061 0.585582 23.4419 0.583252 25.875C0.583252 26.2949 0.750067 26.6976 1.047 26.9946C1.34393 27.2915 1.74666 27.4583 2.16659 27.4583C2.58651 27.4583 2.98924 27.2915 3.28617 26.9946C3.5831 26.6976 3.74992 26.2949 3.74992 25.875C3.74992 23.3554 4.75081 20.9391 6.53241 19.1575C8.314 17.3759 10.7304 16.375 13.2499 16.375C15.7695 16.375 18.1858 17.3759 19.9674 19.1575C21.749 20.9391 22.7499 23.3554 22.7499 25.875C22.7499 26.2949 22.9167 26.6976 23.2137 26.9946C23.5106 27.2915 23.9133 27.4583 24.3333 27.4583C24.7532 27.4583 25.1559 27.2915 25.4528 26.9946C25.7498 26.6976 25.9166 26.2949 25.9166 25.875C25.9143 23.4419 25.2112 21.061 23.8915 19.0169C22.5718 16.9727 20.6914 15.352 18.4749 14.3483ZM13.2499 13.2083C12.3105 13.2083 11.3921 12.9297 10.611 12.4078C9.82983 11.8859 9.22101 11.144 8.86149 10.2761C8.50198 9.40812 8.40791 8.45305 8.59119 7.53164C8.77447 6.61023 9.22686 5.76387 9.89116 5.09957C10.5555 4.43527 11.4018 3.98287 12.3232 3.79959C13.2447 3.61631 14.1997 3.71038 15.0677 4.0699C15.9356 4.42941 16.6775 5.03823 17.1994 5.81936C17.7213 6.6005 17.9999 7.51886 17.9999 8.45832C17.9999 9.7181 17.4995 10.9263 16.6087 11.8171C15.7179 12.7079 14.5097 13.2083 13.2499 13.2083ZM28.6716 13.715C29.6849 12.5739 30.3468 11.1643 30.5776 9.65586C30.8084 8.14739 30.5984 6.60436 29.9727 5.21249C29.347 3.82062 28.3324 2.63925 27.051 1.81058C25.7696 0.981902 24.2759 0.541249 22.7499 0.541657C22.33 0.541657 21.9273 0.708472 21.6303 1.0054C21.3334 1.30234 21.1666 1.70506 21.1666 2.12499C21.1666 2.54492 21.3334 2.94764 21.6303 3.24458C21.9273 3.54151 22.33 3.70832 22.7499 3.70832C24.0097 3.70832 25.2179 4.20877 26.1087 5.09957C26.9995 5.99036 27.4999 7.19854 27.4999 8.45832C27.4977 9.28995 27.2771 10.1064 26.8604 10.8261C26.4436 11.5457 25.8451 12.1433 25.1249 12.5592C24.8902 12.6946 24.6941 12.888 24.5555 13.1208C24.4169 13.3537 24.3404 13.6182 24.3333 13.8892C24.3266 14.1579 24.3886 14.424 24.5132 14.6622C24.6379 14.9005 24.8211 15.103 25.0458 15.2508L25.6633 15.6625L25.8691 15.7733C27.7776 16.6785 29.3878 18.1103 30.5098 19.9C31.6319 21.6897 32.2191 23.7627 32.2024 25.875C32.2024 26.2949 32.3692 26.6976 32.6662 26.9946C32.9631 27.2915 33.3658 27.4583 33.7858 27.4583C34.2057 27.4583 34.6084 27.2915 34.9053 26.9946C35.2023 26.6976 35.3691 26.2949 35.3691 25.875C35.382 23.4452 34.7735 21.0526 33.6012 18.9243C32.429 16.7959 30.7321 15.0027 28.6716 13.715Z" fill="#FF9670"/>
</svg>
